<mxfile host="app.diagrams.net" modified="2023-12-06T21:37:51.201Z" agent="Mozilla/5.0 (Windows NT 10.0; Win64; x64) AppleWebKit/537.36 (KHTML, like Gecko) Chrome/119.0.0.0 Safari/537.36" etag="timXkrpprwSHdeJ5265o" version="22.1.5" type="device">
  <diagram name="Page-1" id="YDHhIk46RyTXh9LSPzu3">
    <mxGraphModel dx="882" dy="578" grid="1" gridSize="10" guides="1" tooltips="1" connect="1" arrows="1" fold="1" page="1" pageScale="1" pageWidth="850" pageHeight="1100" math="0" shadow="0">
      <root>
        <mxCell id="0" />
        <mxCell id="1" parent="0" />
        <mxCell id="s42ONqCnvufCmdt6-LnY-12" style="edgeStyle=orthogonalEdgeStyle;rounded=0;orthogonalLoop=1;jettySize=auto;html=1;exitX=0;exitY=0.5;exitDx=0;exitDy=0;entryX=0.5;entryY=0;entryDx=0;entryDy=0;" edge="1" parent="1" source="s42ONqCnvufCmdt6-LnY-1" target="s42ONqCnvufCmdt6-LnY-2">
          <mxGeometry relative="1" as="geometry" />
        </mxCell>
        <mxCell id="s42ONqCnvufCmdt6-LnY-13" style="edgeStyle=orthogonalEdgeStyle;rounded=0;orthogonalLoop=1;jettySize=auto;html=1;exitX=1;exitY=0.5;exitDx=0;exitDy=0;" edge="1" parent="1" source="s42ONqCnvufCmdt6-LnY-1" target="s42ONqCnvufCmdt6-LnY-4">
          <mxGeometry relative="1" as="geometry" />
        </mxCell>
        <mxCell id="s42ONqCnvufCmdt6-LnY-14" style="edgeStyle=orthogonalEdgeStyle;rounded=0;orthogonalLoop=1;jettySize=auto;html=1;exitX=0.5;exitY=1;exitDx=0;exitDy=0;" edge="1" parent="1" source="s42ONqCnvufCmdt6-LnY-1" target="s42ONqCnvufCmdt6-LnY-3">
          <mxGeometry relative="1" as="geometry" />
        </mxCell>
        <mxCell id="s42ONqCnvufCmdt6-LnY-1" value="Post" style="rounded=1;whiteSpace=wrap;html=1;" vertex="1" parent="1">
          <mxGeometry x="280" y="40" width="120" height="60" as="geometry" />
        </mxCell>
        <mxCell id="s42ONqCnvufCmdt6-LnY-15" style="edgeStyle=orthogonalEdgeStyle;rounded=0;orthogonalLoop=1;jettySize=auto;html=1;exitX=0.5;exitY=1;exitDx=0;exitDy=0;entryX=0.5;entryY=0;entryDx=0;entryDy=0;" edge="1" parent="1" source="s42ONqCnvufCmdt6-LnY-2" target="s42ONqCnvufCmdt6-LnY-6">
          <mxGeometry relative="1" as="geometry" />
        </mxCell>
        <mxCell id="s42ONqCnvufCmdt6-LnY-2" value="Image" style="rounded=1;whiteSpace=wrap;html=1;" vertex="1" parent="1">
          <mxGeometry x="80" y="200" width="120" height="60" as="geometry" />
        </mxCell>
        <mxCell id="s42ONqCnvufCmdt6-LnY-16" style="edgeStyle=orthogonalEdgeStyle;rounded=0;orthogonalLoop=1;jettySize=auto;html=1;exitX=0.5;exitY=1;exitDx=0;exitDy=0;entryX=0.5;entryY=0;entryDx=0;entryDy=0;" edge="1" parent="1" source="s42ONqCnvufCmdt6-LnY-3" target="s42ONqCnvufCmdt6-LnY-7">
          <mxGeometry relative="1" as="geometry" />
        </mxCell>
        <mxCell id="s42ONqCnvufCmdt6-LnY-3" value="Text" style="rounded=1;whiteSpace=wrap;html=1;" vertex="1" parent="1">
          <mxGeometry x="280" y="200" width="120" height="60" as="geometry" />
        </mxCell>
        <mxCell id="s42ONqCnvufCmdt6-LnY-17" style="edgeStyle=orthogonalEdgeStyle;rounded=0;orthogonalLoop=1;jettySize=auto;html=1;exitX=0.5;exitY=1;exitDx=0;exitDy=0;entryX=0.5;entryY=0;entryDx=0;entryDy=0;" edge="1" parent="1" source="s42ONqCnvufCmdt6-LnY-4" target="s42ONqCnvufCmdt6-LnY-8">
          <mxGeometry relative="1" as="geometry" />
        </mxCell>
        <mxCell id="s42ONqCnvufCmdt6-LnY-4" value="Author" style="rounded=1;whiteSpace=wrap;html=1;" vertex="1" parent="1">
          <mxGeometry x="480" y="200" width="120" height="60" as="geometry" />
        </mxCell>
        <mxCell id="s42ONqCnvufCmdt6-LnY-5" value="" style="swimlane;startSize=0;" vertex="1" parent="1">
          <mxGeometry x="40" y="160" width="600" height="400" as="geometry" />
        </mxCell>
        <mxCell id="s42ONqCnvufCmdt6-LnY-19" style="edgeStyle=orthogonalEdgeStyle;rounded=0;orthogonalLoop=1;jettySize=auto;html=1;exitX=0.5;exitY=1;exitDx=0;exitDy=0;entryX=0;entryY=0.5;entryDx=0;entryDy=0;" edge="1" parent="s42ONqCnvufCmdt6-LnY-5" source="s42ONqCnvufCmdt6-LnY-6" target="s42ONqCnvufCmdt6-LnY-10">
          <mxGeometry relative="1" as="geometry" />
        </mxCell>
        <mxCell id="s42ONqCnvufCmdt6-LnY-6" value="Model1" style="rounded=1;whiteSpace=wrap;html=1;" vertex="1" parent="s42ONqCnvufCmdt6-LnY-5">
          <mxGeometry x="40" y="160" width="120" height="60" as="geometry" />
        </mxCell>
        <mxCell id="s42ONqCnvufCmdt6-LnY-18" style="edgeStyle=orthogonalEdgeStyle;rounded=0;orthogonalLoop=1;jettySize=auto;html=1;exitX=0.5;exitY=1;exitDx=0;exitDy=0;entryX=0.5;entryY=0;entryDx=0;entryDy=0;" edge="1" parent="s42ONqCnvufCmdt6-LnY-5" source="s42ONqCnvufCmdt6-LnY-7" target="s42ONqCnvufCmdt6-LnY-10">
          <mxGeometry relative="1" as="geometry" />
        </mxCell>
        <mxCell id="s42ONqCnvufCmdt6-LnY-7" value="Model2" style="rounded=1;whiteSpace=wrap;html=1;" vertex="1" parent="s42ONqCnvufCmdt6-LnY-5">
          <mxGeometry x="240" y="160" width="120" height="60" as="geometry" />
        </mxCell>
        <mxCell id="s42ONqCnvufCmdt6-LnY-21" style="edgeStyle=orthogonalEdgeStyle;rounded=0;orthogonalLoop=1;jettySize=auto;html=1;exitX=0.5;exitY=1;exitDx=0;exitDy=0;entryX=1;entryY=0.5;entryDx=0;entryDy=0;" edge="1" parent="s42ONqCnvufCmdt6-LnY-5" source="s42ONqCnvufCmdt6-LnY-8" target="s42ONqCnvufCmdt6-LnY-10">
          <mxGeometry relative="1" as="geometry" />
        </mxCell>
        <mxCell id="s42ONqCnvufCmdt6-LnY-8" value="Model3" style="rounded=1;whiteSpace=wrap;html=1;" vertex="1" parent="s42ONqCnvufCmdt6-LnY-5">
          <mxGeometry x="440" y="160" width="120" height="60" as="geometry" />
        </mxCell>
        <mxCell id="s42ONqCnvufCmdt6-LnY-10" value="Fusion" style="rounded=1;whiteSpace=wrap;html=1;" vertex="1" parent="s42ONqCnvufCmdt6-LnY-5">
          <mxGeometry x="240" y="280" width="120" height="60" as="geometry" />
        </mxCell>
        <mxCell id="s42ONqCnvufCmdt6-LnY-11" value="Harmful probability" style="rounded=1;whiteSpace=wrap;html=1;" vertex="1" parent="1">
          <mxGeometry x="280" y="600" width="120" height="60" as="geometry" />
        </mxCell>
        <mxCell id="s42ONqCnvufCmdt6-LnY-22" style="edgeStyle=orthogonalEdgeStyle;rounded=0;orthogonalLoop=1;jettySize=auto;html=1;exitX=0.5;exitY=1;exitDx=0;exitDy=0;" edge="1" parent="1" source="s42ONqCnvufCmdt6-LnY-10" target="s42ONqCnvufCmdt6-LnY-11">
          <mxGeometry relative="1" as="geometry" />
        </mxCell>
      </root>
    </mxGraphModel>
  </diagram>
</mxfile>
